<svg xmlns="http://www.w3.org/2000/svg" width="20.542" height="20.784" viewBox="0 0 20.542 20.784">
    <path data-name="패스 11932" d="m19.162 37.1-2.043-3.87-1.261 2.122-1.009 1.748 2.151.033z" transform="translate(-10.038 -22.468)" style="fill:#fff"/>
    <path data-name="패스 11933" d="M0 27.847h17.4v-17.4H0zM3.406 23.1q.141-.256.986-1.686l4.37-7.356.563-.975 5.775 10.45h-5.008l-.7-1.321H6.977l-2.13-.012-.36-.007-.475.882a3.333 3.333 0 0 1-.293.494.264.264 0 0 1-.207.1q-.247 0-.247-.217a.954.954 0 0 1 .141-.35" transform="translate(0 -7.063)" style="fill:#fff"/>
    <path data-name="패스 11934" d="M3.517 0 .686 3.05h17.277L20.794 0z" transform="translate(-.464)" style="fill:#fff"/>
    <path data-name="패스 11935" d="M54.691 3.839v17.284L57.5 18.1v-.042l.017-.018V.8z" transform="translate(-36.974 -.539)" style="fill:#fff"/>
</svg>
